<svg xmlns="http://www.w3.org/2000/svg" width="256" height="256" viewBox="0 0 256 256" role="img" aria-label="TechAds crown favicon">
  <defs>
    <linearGradient id="gold" x1="0" y1="0" x2="1" y2="1">
      <stop offset="0%" stop-color="#FFE08A" />
      <stop offset="55%" stop-color="#D4A12F" />
      <stop offset="100%" stop-color="#B57B0F" />
    </linearGradient>
    <radialGradient id="panel" cx="30%" cy="20%" r="80%">
      <stop offset="0%" stop-color="#242424" />
      <stop offset="100%" stop-color="#0B0B0B" />
    </radialGradient>
  </defs>

  <rect x="8" y="8" width="240" height="240" rx="56" fill="url(#panel)" />

  <path
    fill="url(#gold)"
    d="M48 82c0-5 6-8 10-5l32 22 38-50c3-5 10-5 14 0l38 50 32-22c4-3 10 0 10 5 0 1 0 2-1 3l-24 94c-1 5-5 9-10 9H69c-5 0-9-4-10-9L37 85c-1-1-1-2-1-3zm40 120h80c4 0 8 4 8 8s-4 8-8 8H88c-4 0-8-4-8-8s4-8 8-8z"
  />

  <circle cx="128" cy="122" r="10" fill="#0E0E0E" opacity="0.3" />
</svg>
