<svg width="1280" height="720" viewBox="0 0 1280 720" fill="none" xmlns="http://www.w3.org/2000/svg">
  <defs>
    <linearGradient id="g2" x1="0" y1="0" x2="1280" y2="720" gradientUnits="userSpaceOnUse">
      <stop stop-color="#020617"/>
      <stop offset="0.5" stop-color="#0F172A"/>
      <stop offset="1" stop-color="#1D4ED8"/>
    </linearGradient>
  </defs>
  <rect width="1280" height="720" fill="url(#g2)"/>
  <g opacity="0.8">
    <rect x="120" y="120" width="1040" height="480" rx="28" fill="#020617"/>
    <path d="M180 500C240 430 300 470 360 390C420 310 480 330 540 260C600 190 660 220 720 180C780 140 840 200 900 170C960 140 1020 220 1080 160" stroke="#22D3EE" stroke-width="10" stroke-linecap="round"/>
    <rect x="180" y="180" width="190" height="110" rx="16" fill="#1E40AF" fill-opacity="0.7"/>
    <rect x="400" y="180" width="190" height="110" rx="16" fill="#0369A1" fill-opacity="0.7"/>
    <rect x="620" y="180" width="190" height="110" rx="16" fill="#0EA5E9" fill-opacity="0.7"/>
    <rect x="840" y="180" width="240" height="110" rx="16" fill="#1D4ED8" fill-opacity="0.7"/>
  </g>
  <text x="170" y="102" fill="#E2E8F0" font-size="34" font-family="Arial">Sales Analytics</text>
</svg>
